<svg xmlns="http://www.w3.org/2000/svg" xmlns:xlink="http://www.w3.org/1999/xlink" width="500" zoomAndPan="magnify" viewBox="0 0 375 374.999991" height="500" preserveAspectRatio="xMidYMid meet" version="1.0"><defs><g/></defs><g fill="#000000" fill-opacity="1"><g transform="translate(52.139251, 264.573136)"><g><path d="M 10.886719 -65.832031 C 34.433594 22.28125 161.539062 21.773438 177.996094 -60.515625 L 175.71875 -61.019531 C 160.78125 14.433594 51.652344 14.179688 28.863281 -70.640625 C 26.332031 -79.757812 25.320312 -89.378906 25.320312 -99 L 30.636719 -99 C 71.148438 -99 115.457031 -89.378906 115.457031 -89.378906 L 117.734375 -89.378906 L 117.734375 -110.898438 L 115.457031 -110.898438 C 115.457031 -110.898438 71.148438 -101.277344 30.636719 -101.277344 L 25.574219 -101.277344 C 26.585938 -133.179688 42.285156 -165.082031 74.945312 -173.945312 C 111.660156 -183.566406 142.296875 -156.476562 157.996094 -125.078125 L 160.273438 -125.078125 L 166.351562 -147.359375 C 144.574219 -172.933594 109.128906 -185.339844 74.441406 -175.972656 C 26.585938 -163.058594 -2.027344 -113.9375 10.886719 -65.832031 Z M 10.886719 -65.832031 "/></g></g></g><g fill="#000000" fill-opacity="1"><g transform="translate(116.442075, 266.641729)"><g><path d="M 10.886719 -66.085938 C 34.433594 22.027344 161.539062 21.523438 177.742188 -60.765625 L 175.71875 -61.273438 C 160.78125 14.179688 51.652344 13.925781 28.863281 -70.894531 C 18.230469 -110.394531 31.394531 -162.550781 74.945312 -174.199219 C 111.40625 -183.820312 142.296875 -156.726562 157.996094 -125.332031 L 160.273438 -125.332031 L 166.097656 -147.613281 C 144.320312 -173.1875 109.128906 -185.59375 74.441406 -176.222656 C 26.332031 -163.3125 -2.027344 -114.191406 10.886719 -66.085938 Z M 10.886719 -66.085938 "/></g></g></g><g fill="#000000" fill-opacity="1"><g transform="translate(53.225809, 317.079178)"><g><path d="M 22.101562 -13.757812 C 22.03125 -13.683594 21.980469 -13.585938 21.90625 -13.488281 C 20.757812 -11.847656 19.460938 -10.15625 18.039062 -8.421875 C 16.597656 -6.683594 15.054688 -5.140625 13.414062 -3.820312 C 11.75 -2.472656 10.011719 -1.640625 8.175781 -1.273438 C 5.949219 -0.953125 4.285156 -1.320312 3.132812 -2.375 C 1.984375 -3.425781 1.347656 -4.820312 1.199219 -6.609375 C 1.050781 -8.371094 1.371094 -10.183594 2.128906 -12.019531 C 2.886719 -13.855469 4.085938 -15.421875 5.679688 -16.71875 C 7.269531 -17.992188 9.203125 -18.652344 11.527344 -18.699219 L 11.554688 -18.699219 C 11.726562 -18.726562 11.847656 -18.796875 11.96875 -18.921875 C 12.066406 -19.042969 12.117188 -19.191406 12.117188 -19.335938 C 12.117188 -19.460938 12.042969 -19.558594 11.871094 -19.582031 C 10.304688 -20 9.375 -20.734375 9.105469 -21.832031 C 8.8125 -22.933594 8.957031 -24.109375 9.546875 -25.382812 C 10.109375 -26.632812 10.917969 -27.734375 11.96875 -28.640625 C 13.023438 -29.542969 14.074219 -30.035156 15.175781 -30.082031 C 16.425781 -30.035156 17.183594 -29.570312 17.476562 -28.6875 C 17.746094 -27.78125 17.722656 -26.828125 17.402344 -25.824219 C 17.085938 -24.796875 16.621094 -24.085938 16.007812 -23.667969 C 15.835938 -23.546875 15.738281 -23.402344 15.738281 -23.253906 C 15.714844 -23.105469 15.761719 -23.007812 15.886719 -22.933594 C 16.007812 -22.863281 16.15625 -22.863281 16.328125 -22.960938 C 17.230469 -23.570312 17.867188 -24.503906 18.285156 -25.773438 C 18.699219 -27.023438 18.699219 -28.199219 18.308594 -29.273438 C 17.894531 -30.351562 16.9375 -30.914062 15.394531 -30.988281 C 14.171875 -30.941406 12.996094 -30.472656 11.871094 -29.570312 C 10.722656 -28.664062 9.789062 -27.5625 9.082031 -26.265625 C 8.371094 -24.96875 8.027344 -23.667969 8.054688 -22.421875 C 8.078125 -21.171875 8.640625 -20.167969 9.742188 -19.410156 C 7.488281 -18.921875 5.628906 -17.917969 4.136719 -16.398438 C 2.644531 -14.882812 1.589844 -13.144531 0.953125 -11.210938 C 0.316406 -9.253906 0.148438 -7.390625 0.417969 -5.605469 C 0.683594 -3.820312 1.445312 -2.421875 2.71875 -1.417969 C 3.964844 -0.417969 5.777344 -0.0742188 8.101562 -0.441406 C 10.109375 -0.855469 11.992188 -1.761719 13.757812 -3.207031 C 15.519531 -4.625 17.160156 -6.265625 18.652344 -8.125 C 20.144531 -9.988281 21.46875 -11.773438 22.640625 -13.460938 C 22.738281 -13.609375 22.765625 -13.730469 22.714844 -13.828125 C 22.640625 -13.902344 22.566406 -13.953125 22.445312 -13.953125 C 22.324219 -13.953125 22.199219 -13.878906 22.101562 -13.757812 Z M 22.101562 -13.757812 "/></g></g></g><g fill="#000000" fill-opacity="1"><g transform="translate(74.811162, 317.079178)"><g><path d="M -0.585938 -10.011719 C -1.050781 -10.011719 -1.296875 -10.15625 -1.273438 -10.476562 C -1.273438 -10.550781 -1.25 -10.648438 -1.199219 -10.722656 C -1.175781 -10.792969 -1.078125 -10.867188 -0.929688 -10.992188 C -0.808594 -11.113281 -0.5625 -11.234375 -0.246094 -11.40625 C 0.0742188 -11.578125 0.515625 -11.773438 1.078125 -11.992188 C 1.640625 -12.214844 2.351562 -12.507812 3.230469 -12.828125 C 4.085938 -13.144531 5.164062 -13.535156 6.4375 -13.976562 C 5.582031 -14.074219 4.625 -14.125 3.574219 -14.097656 C 2.519531 -14.074219 1.6875 -13.902344 1.078125 -13.609375 C 0.953125 -13.535156 0.855469 -13.460938 0.808594 -13.390625 C 0.757812 -13.316406 0.734375 -13.265625 0.710938 -13.21875 C 0.683594 -13.09375 0.613281 -12.996094 0.515625 -12.925781 C 0.390625 -12.828125 0.292969 -12.777344 0.171875 -12.777344 C 0.0507812 -12.777344 -0.0507812 -12.828125 -0.0976562 -12.925781 C -0.171875 -12.996094 -0.171875 -13.09375 -0.148438 -13.21875 C 0.0976562 -14.125 1.078125 -14.6875 2.816406 -14.90625 C 3.523438 -14.980469 4.1875 -15.003906 4.847656 -14.980469 C 5.484375 -14.957031 5.996094 -14.929688 6.386719 -14.882812 C 6.902344 -14.832031 7.320312 -14.785156 7.613281 -14.734375 C 7.882812 -14.6875 8.101562 -14.636719 8.222656 -14.589844 C 8.347656 -14.515625 8.421875 -14.464844 8.445312 -14.417969 C 8.46875 -14.34375 8.46875 -14.292969 8.46875 -14.222656 C 8.46875 -14.097656 8.421875 -14 8.347656 -13.902344 C 8.273438 -13.804688 8.152344 -13.730469 8.027344 -13.683594 C 3.792969 -12.238281 1.273438 -11.308594 0.441406 -10.890625 L 6.316406 -10.890625 C 7.785156 -10.890625 9.082031 -10.964844 10.207031 -11.113281 C 11.332031 -11.257812 12.359375 -11.554688 13.316406 -11.96875 C 14.269531 -12.386719 15.199219 -13.023438 16.128906 -13.828125 C 16.230469 -13.925781 16.351562 -13.976562 16.472656 -14 C 16.597656 -14 16.667969 -13.953125 16.742188 -13.878906 C 16.816406 -13.804688 16.863281 -13.707031 16.839844 -13.585938 C 16.816406 -13.460938 16.742188 -13.363281 16.644531 -13.265625 C 15.640625 -12.359375 14.613281 -11.675781 13.5625 -11.210938 C 12.507812 -10.746094 11.382812 -10.425781 10.183594 -10.28125 C 8.984375 -10.109375 7.613281 -10.035156 6.070312 -10.035156 C 4.554688 -10.035156 3.453125 -10.035156 2.789062 -10.035156 C 2.128906 -10.035156 1.617188 -10.035156 1.25 -10.011719 Z M -0.585938 -10.011719 "/></g></g></g><g fill="#000000" fill-opacity="1"><g transform="translate(90.767681, 317.079178)"><g><path d="M 1.175781 -13.316406 C 2.519531 -13.144531 3.453125 -13.242188 3.917969 -13.585938 C 3.988281 -13.632812 4.039062 -13.683594 4.0625 -13.707031 C 4.085938 -13.730469 4.085938 -13.730469 4.085938 -13.757812 C 4.085938 -13.78125 4.039062 -13.828125 3.941406 -13.878906 C 3.84375 -13.925781 3.671875 -13.953125 3.425781 -13.953125 C 2.914062 -13.953125 2.472656 -13.902344 2.105469 -13.78125 C 1.738281 -13.660156 1.417969 -13.488281 1.175781 -13.316406 Z M 2.742188 -10.035156 L 2.449219 -10.035156 C 0.171875 -10.109375 -0.808594 -10.867188 -0.441406 -12.359375 C -0.367188 -12.703125 -0.148438 -13.070312 0.171875 -13.4375 C 0.488281 -13.804688 0.953125 -14.148438 1.542969 -14.417969 C 2.105469 -14.6875 2.816406 -14.808594 3.648438 -14.808594 C 4.40625 -14.808594 4.847656 -14.589844 4.96875 -14.125 C 5.042969 -13.804688 4.921875 -13.488281 4.601562 -13.167969 C 4.285156 -12.851562 3.792969 -12.628906 3.109375 -12.484375 C 2.398438 -12.3125 1.519531 -12.335938 0.464844 -12.507812 L 0.417969 -12.359375 C 0.292969 -11.796875 0.488281 -11.40625 1.003906 -11.210938 C 1.492188 -10.992188 2.054688 -10.890625 2.691406 -10.890625 C 5.582031 -10.792969 8.859375 -11.726562 12.507812 -13.660156 C 12.628906 -13.730469 12.726562 -13.730469 12.851562 -13.707031 C 12.949219 -13.683594 13.023438 -13.609375 13.046875 -13.511719 C 13.070312 -13.390625 13.070312 -13.292969 13.023438 -13.195312 C 12.949219 -13.070312 12.875 -12.996094 12.753906 -12.925781 C 9.203125 -10.992188 5.851562 -10.035156 2.742188 -10.035156 Z M 2.742188 -10.035156 "/></g></g></g><g fill="#000000" fill-opacity="1"><g transform="translate(103.0777, 317.079178)"><g><path d="M -0.121094 -9.742188 C -0.613281 -7.757812 -0.953125 -5.996094 -1.152344 -4.480469 C -1.371094 -2.9375 -1.296875 -1.910156 -0.929688 -1.347656 C -0.808594 -1.175781 -0.660156 -1.078125 -0.464844 -1.078125 C -0.390625 -1.078125 -0.269531 -1.101562 -0.148438 -1.175781 C -0.0234375 -1.222656 0.0976562 -1.347656 0.269531 -1.519531 C 0.785156 -2.226562 1.125 -3.28125 1.296875 -4.625 C 1.46875 -5.972656 1.320312 -7.195312 0.90625 -8.347656 C 0.734375 -8.886719 0.390625 -9.351562 -0.121094 -9.742188 Z M -0.683594 -0.21875 C -1.125 -0.21875 -1.46875 -0.390625 -1.714844 -0.734375 C -2.152344 -1.394531 -2.277344 -2.570312 -2.054688 -4.210938 C -1.859375 -5.851562 -1.492188 -7.734375 -0.953125 -9.914062 C -1.175781 -9.960938 -1.417969 -10.011719 -1.664062 -10.058594 C -1.761719 -10.085938 -1.835938 -10.15625 -1.859375 -10.230469 C -1.886719 -10.304688 -1.886719 -10.402344 -1.859375 -10.523438 C -1.835938 -10.625 -1.761719 -10.722656 -1.664062 -10.792969 C -1.589844 -10.867188 -1.492188 -10.890625 -1.371094 -10.917969 C -1.125 -10.941406 -0.90625 -10.941406 -0.683594 -10.917969 C -0.316406 -12.386719 0.0976562 -13.878906 0.515625 -15.394531 C 0.710938 -16.15625 0.90625 -16.863281 1.101562 -17.574219 C 1.125 -17.695312 1.199219 -17.796875 1.320312 -17.867188 C 1.417969 -17.941406 1.519531 -17.992188 1.640625 -17.992188 C 1.761719 -17.992188 1.835938 -17.941406 1.910156 -17.867188 C 1.984375 -17.796875 1.984375 -17.695312 1.957031 -17.574219 C 1.761719 -16.863281 1.566406 -16.15625 1.371094 -15.394531 C 0.953125 -13.855469 0.539062 -12.289062 0.121094 -10.695312 C 0.148438 -10.671875 0.195312 -10.671875 0.21875 -10.671875 C 2.886719 -10.425781 5.753906 -11.429688 8.8125 -13.660156 C 8.933594 -13.730469 9.03125 -13.78125 9.15625 -13.78125 C 9.277344 -13.757812 9.351562 -13.707031 9.425781 -13.632812 C 9.472656 -13.535156 9.472656 -13.4375 9.449219 -13.316406 C 9.425781 -13.195312 9.351562 -13.09375 9.226562 -13.023438 C 6.414062 -10.964844 3.769531 -9.890625 1.25 -9.765625 C 1.445312 -9.496094 1.617188 -9.203125 1.761719 -8.835938 C 2.203125 -7.613281 2.351562 -6.242188 2.179688 -4.75 C 2.007812 -3.253906 1.589844 -2.03125 0.90625 -1.125 C 0.417969 -0.515625 -0.121094 -0.21875 -0.683594 -0.21875 Z M -0.683594 -0.21875 "/></g></g></g><g fill="#000000" fill-opacity="1"><g transform="translate(111.741209, 317.079178)"><g><path d="M -0.121094 -9.742188 C -0.613281 -7.757812 -0.953125 -5.996094 -1.152344 -4.480469 C -1.371094 -2.9375 -1.296875 -1.910156 -0.929688 -1.347656 C -0.808594 -1.175781 -0.660156 -1.078125 -0.464844 -1.078125 C -0.390625 -1.078125 -0.269531 -1.101562 -0.148438 -1.175781 C -0.0234375 -1.222656 0.0976562 -1.347656 0.269531 -1.519531 C 0.785156 -2.226562 1.125 -3.28125 1.296875 -4.625 C 1.46875 -5.972656 1.320312 -7.195312 0.90625 -8.347656 C 0.734375 -8.886719 0.390625 -9.351562 -0.121094 -9.742188 Z M -0.683594 -0.21875 C -1.125 -0.21875 -1.46875 -0.390625 -1.714844 -0.734375 C -2.152344 -1.394531 -2.277344 -2.570312 -2.054688 -4.210938 C -1.859375 -5.851562 -1.492188 -7.734375 -0.953125 -9.914062 C -1.175781 -9.960938 -1.417969 -10.011719 -1.664062 -10.058594 C -1.761719 -10.085938 -1.835938 -10.15625 -1.859375 -10.230469 C -1.886719 -10.304688 -1.886719 -10.402344 -1.859375 -10.523438 C -1.835938 -10.625 -1.761719 -10.722656 -1.664062 -10.792969 C -1.589844 -10.867188 -1.492188 -10.890625 -1.371094 -10.917969 C -1.125 -10.941406 -0.90625 -10.941406 -0.683594 -10.917969 C -0.316406 -12.386719 0.0976562 -13.878906 0.515625 -15.394531 C 0.710938 -16.15625 0.90625 -16.863281 1.101562 -17.574219 C 1.125 -17.695312 1.199219 -17.796875 1.320312 -17.867188 C 1.417969 -17.941406 1.519531 -17.992188 1.640625 -17.992188 C 1.761719 -17.992188 1.835938 -17.941406 1.910156 -17.867188 C 1.984375 -17.796875 1.984375 -17.695312 1.957031 -17.574219 C 1.761719 -16.863281 1.566406 -16.15625 1.371094 -15.394531 C 0.953125 -13.855469 0.539062 -12.289062 0.121094 -10.695312 C 0.148438 -10.671875 0.195312 -10.671875 0.21875 -10.671875 C 2.886719 -10.425781 5.753906 -11.429688 8.8125 -13.660156 C 8.933594 -13.730469 9.03125 -13.78125 9.15625 -13.78125 C 9.277344 -13.757812 9.351562 -13.707031 9.425781 -13.632812 C 9.472656 -13.535156 9.472656 -13.4375 9.449219 -13.316406 C 9.425781 -13.195312 9.351562 -13.09375 9.226562 -13.023438 C 6.414062 -10.964844 3.769531 -9.890625 1.25 -9.765625 C 1.445312 -9.496094 1.617188 -9.203125 1.761719 -8.835938 C 2.203125 -7.613281 2.351562 -6.242188 2.179688 -4.75 C 2.007812 -3.253906 1.589844 -2.03125 0.90625 -1.125 C 0.417969 -0.515625 -0.121094 -0.21875 -0.683594 -0.21875 Z M -0.683594 -0.21875 "/></g></g></g><g fill="#000000" fill-opacity="1"><g transform="translate(120.404718, 317.079178)"><g><path d="M 1.175781 -13.316406 C 2.519531 -13.144531 3.453125 -13.242188 3.917969 -13.585938 C 3.988281 -13.632812 4.039062 -13.683594 4.0625 -13.707031 C 4.085938 -13.730469 4.085938 -13.730469 4.085938 -13.757812 C 4.085938 -13.78125 4.039062 -13.828125 3.941406 -13.878906 C 3.84375 -13.925781 3.671875 -13.953125 3.425781 -13.953125 C 2.914062 -13.953125 2.472656 -13.902344 2.105469 -13.78125 C 1.738281 -13.660156 1.417969 -13.488281 1.175781 -13.316406 Z M 2.742188 -10.035156 L 2.449219 -10.035156 C 0.171875 -10.109375 -0.808594 -10.867188 -0.441406 -12.359375 C -0.367188 -12.703125 -0.148438 -13.070312 0.171875 -13.4375 C 0.488281 -13.804688 0.953125 -14.148438 1.542969 -14.417969 C 2.105469 -14.6875 2.816406 -14.808594 3.648438 -14.808594 C 4.40625 -14.808594 4.847656 -14.589844 4.96875 -14.125 C 5.042969 -13.804688 4.921875 -13.488281 4.601562 -13.167969 C 4.285156 -12.851562 3.792969 -12.628906 3.109375 -12.484375 C 2.398438 -12.3125 1.519531 -12.335938 0.464844 -12.507812 L 0.417969 -12.359375 C 0.292969 -11.796875 0.488281 -11.40625 1.003906 -11.210938 C 1.492188 -10.992188 2.054688 -10.890625 2.691406 -10.890625 C 5.582031 -10.792969 8.859375 -11.726562 12.507812 -13.660156 C 12.628906 -13.730469 12.726562 -13.730469 12.851562 -13.707031 C 12.949219 -13.683594 13.023438 -13.609375 13.046875 -13.511719 C 13.070312 -13.390625 13.070312 -13.292969 13.023438 -13.195312 C 12.949219 -13.070312 12.875 -12.996094 12.753906 -12.925781 C 9.203125 -10.992188 5.851562 -10.035156 2.742188 -10.035156 Z M 2.742188 -10.035156 "/></g></g></g><g fill="#000000" fill-opacity="1"><g transform="translate(132.714737, 317.079178)"><g><path d="M 0.0234375 -10.035156 C -0.148438 -10.035156 -0.269531 -10.109375 -0.367188 -10.230469 C -0.636719 -10.574219 -0.464844 -11.796875 0.148438 -13.902344 L 0.21875 -14.195312 C 0.246094 -14.320312 0.316406 -14.441406 0.441406 -14.515625 C 0.539062 -14.589844 0.660156 -14.636719 0.785156 -14.636719 C 0.90625 -14.636719 0.980469 -14.589844 1.050781 -14.515625 C 1.101562 -14.441406 1.101562 -14.320312 1.078125 -14.195312 L 1.003906 -13.902344 C 0.90625 -13.5625 0.785156 -13.121094 0.660156 -12.582031 C 0.539062 -12.019531 0.441406 -11.554688 0.390625 -11.1875 C 0.585938 -11.457031 0.785156 -11.726562 0.980469 -12.042969 C 1.25 -12.460938 1.542969 -12.898438 1.859375 -13.316406 C 2.179688 -13.730469 2.496094 -14.097656 2.863281 -14.394531 C 3.207031 -14.6875 3.574219 -14.832031 3.964844 -14.832031 C 4.234375 -14.832031 4.453125 -14.785156 4.625 -14.660156 C 4.796875 -14.539062 4.921875 -14.394531 5.042969 -14.222656 C 5.164062 -14.097656 5.3125 -13.953125 5.484375 -13.828125 C 5.65625 -13.683594 5.875 -13.5625 6.167969 -13.4375 C 6.632812 -13.292969 7.515625 -13.242188 8.761719 -13.265625 C 10.011719 -13.292969 11.285156 -13.4375 12.628906 -13.707031 C 12.753906 -13.730469 12.875 -13.707031 12.949219 -13.660156 C 13.023438 -13.585938 13.070312 -13.488281 13.070312 -13.363281 C 13.046875 -13.242188 12.996094 -13.144531 12.925781 -13.046875 C 12.828125 -12.949219 12.726562 -12.875 12.605469 -12.851562 C 11.234375 -12.582031 9.890625 -12.410156 8.542969 -12.386719 C 7.195312 -12.359375 6.265625 -12.433594 5.703125 -12.605469 C 5.335938 -12.753906 5.042969 -12.925781 4.820312 -13.09375 C 4.601562 -13.265625 4.429688 -13.414062 4.308594 -13.585938 C 4.1875 -13.707031 4.113281 -13.804688 4.039062 -13.878906 C 3.964844 -13.925781 3.867188 -13.953125 3.746094 -13.953125 C 3.453125 -13.953125 3.109375 -13.707031 2.742188 -13.21875 C 2.351562 -12.703125 2.007812 -12.214844 1.714844 -11.75 C 1.394531 -11.234375 1.101562 -10.820312 0.832031 -10.5 C 0.5625 -10.183594 0.292969 -10.035156 0.0234375 -10.035156 Z M 0.0234375 -10.035156 "/></g></g></g><g fill="#000000" fill-opacity="1"><g transform="translate(144.951332, 317.079178)"><g><path d="M 4.578125 -28.46875 C 4.210938 -27.097656 3.867188 -25.824219 3.550781 -24.648438 L 15.761719 -24.648438 C 15.886719 -24.648438 15.960938 -24.601562 16.03125 -24.527344 C 16.105469 -24.453125 16.105469 -24.332031 16.082031 -24.207031 C 16.058594 -24.085938 15.984375 -23.988281 15.886719 -23.914062 C 15.761719 -23.816406 15.640625 -23.769531 15.519531 -23.769531 L 3.304688 -23.769531 C 2.300781 -20.144531 1.589844 -17.355469 1.175781 -15.394531 C 0.757812 -13.363281 0.757812 -12.066406 1.199219 -11.457031 C 1.445312 -11.089844 1.957031 -10.917969 2.765625 -10.917969 C 3.5 -10.917969 4.234375 -11.0625 4.96875 -11.359375 C 5.679688 -11.652344 6.363281 -11.992188 7 -12.410156 C 7.636719 -12.800781 8.199219 -13.167969 8.714844 -13.535156 L 8.738281 -13.535156 C 8.910156 -13.660156 9.058594 -13.78125 9.203125 -13.878906 C 9.324219 -13.953125 9.425781 -14 9.546875 -13.976562 C 9.667969 -13.953125 9.742188 -13.902344 9.789062 -13.828125 C 9.839844 -13.730469 9.839844 -13.632812 9.816406 -13.511719 C 9.765625 -13.390625 9.691406 -13.292969 9.570312 -13.21875 C 9.449219 -13.121094 9.300781 -13.023438 9.15625 -12.898438 C 9.128906 -12.898438 9.128906 -12.898438 9.105469 -12.875 C 8.589844 -12.507812 8.003906 -12.117188 7.292969 -11.675781 C 6.585938 -11.234375 5.824219 -10.84375 5.019531 -10.523438 C 4.210938 -10.207031 3.378906 -10.035156 2.546875 -10.035156 C 1.492188 -10.035156 0.785156 -10.304688 0.417969 -10.84375 C -0.0976562 -11.527344 -0.171875 -12.875 0.21875 -14.90625 C 0.613281 -16.863281 1.347656 -19.828125 2.449219 -23.769531 L -3.964844 -23.769531 C -4.085938 -23.769531 -4.160156 -23.816406 -4.210938 -23.914062 C -4.285156 -23.988281 -4.308594 -24.085938 -4.285156 -24.207031 C -4.234375 -24.332031 -4.160156 -24.453125 -4.0625 -24.527344 C -3.964844 -24.601562 -3.84375 -24.648438 -3.71875 -24.648438 L 2.691406 -24.648438 C 3.011719 -25.824219 3.351562 -27.097656 3.71875 -28.46875 C 3.746094 -28.589844 3.820312 -28.6875 3.941406 -28.761719 C 4.039062 -28.835938 4.136719 -28.882812 4.257812 -28.882812 C 4.382812 -28.882812 4.480469 -28.835938 4.554688 -28.761719 C 4.601562 -28.6875 4.601562 -28.589844 4.578125 -28.46875 Z M 4.578125 -28.46875 "/></g></g></g><g fill="#000000" fill-opacity="1"><g transform="translate(153.908519, 317.079178)"><g><path d="M -0.148438 -10.035156 C -0.21875 -10.035156 -0.292969 -10.058594 -0.34375 -10.085938 C -0.441406 -10.132812 -0.488281 -10.257812 -0.515625 -10.476562 C -0.539062 -10.671875 -0.515625 -11.039062 -0.417969 -11.554688 C -0.316406 -12.066406 -0.148438 -12.828125 0.0976562 -13.828125 C 0.316406 -14.832031 0.660156 -16.128906 1.101562 -17.746094 C 1.519531 -19.363281 2.054688 -21.367188 2.71875 -23.742188 C 3.15625 -25.40625 3.574219 -26.972656 3.988281 -28.46875 C 4.015625 -28.589844 4.085938 -28.6875 4.210938 -28.761719 C 4.308594 -28.835938 4.40625 -28.882812 4.527344 -28.882812 C 4.652344 -28.882812 4.75 -28.835938 4.820312 -28.761719 C 4.871094 -28.6875 4.871094 -28.589844 4.847656 -28.46875 C 4.453125 -26.972656 4.039062 -25.40625 3.574219 -23.742188 C 2.914062 -21.320312 2.25 -18.871094 1.589844 -16.398438 C 0.929688 -13.925781 0.539062 -12.164062 0.367188 -11.160156 C 0.464844 -11.234375 0.5625 -11.285156 0.636719 -11.332031 C 1.347656 -11.824219 2.128906 -12.335938 2.984375 -12.875 C 3.84375 -13.390625 4.675781 -13.855469 5.507812 -14.246094 C 6.316406 -14.636719 7.023438 -14.832031 7.589844 -14.832031 C 7.929688 -14.832031 8.175781 -14.734375 8.347656 -14.5625 C 8.492188 -14.367188 8.589844 -14.125 8.664062 -13.855469 C 8.714844 -13.5625 8.738281 -13.265625 8.761719 -12.972656 C 8.789062 -12.359375 8.886719 -11.847656 9.058594 -11.480469 C 9.226562 -11.113281 9.621094 -10.917969 10.230469 -10.917969 C 11.039062 -10.917969 11.847656 -11.0625 12.703125 -11.382812 C 13.535156 -11.675781 14.34375 -12.042969 15.101562 -12.507812 C 15.863281 -12.949219 16.570312 -13.390625 17.183594 -13.855469 C 17.304688 -13.925781 17.402344 -13.976562 17.527344 -13.976562 C 17.648438 -13.976562 17.722656 -13.925781 17.796875 -13.828125 C 17.84375 -13.730469 17.84375 -13.632812 17.820312 -13.511719 C 17.796875 -13.390625 17.722656 -13.292969 17.597656 -13.21875 C 16.9375 -12.726562 16.179688 -12.238281 15.347656 -11.773438 C 14.515625 -11.285156 13.632812 -10.867188 12.726562 -10.550781 C 11.796875 -10.230469 10.890625 -10.058594 9.988281 -10.058594 C 9.324219 -10.058594 8.859375 -10.207031 8.589844 -10.5 C 8.296875 -10.769531 8.101562 -11.113281 8.027344 -11.527344 C 7.929688 -11.921875 7.882812 -12.3125 7.855469 -12.703125 C 7.832031 -13.121094 7.808594 -13.4375 7.734375 -13.660156 C 7.660156 -13.855469 7.539062 -13.953125 7.34375 -13.953125 C 6.878906 -13.953125 6.265625 -13.757812 5.507812 -13.390625 C 4.75 -13.023438 3.964844 -12.582031 3.15625 -12.066406 C 2.351562 -11.554688 1.640625 -11.089844 1.003906 -10.671875 C 0.683594 -10.476562 0.417969 -10.304688 0.195312 -10.132812 C 0.0742188 -10.058594 -0.0507812 -10.035156 -0.148438 -10.035156 Z M -0.148438 -10.035156 "/></g></g></g><g fill="#000000" fill-opacity="1"><g transform="translate(170.966337, 317.079178)"><g/></g></g><g fill="#000000" fill-opacity="1"><g transform="translate(183.545556, 317.079178)"><g><path d="M 22.054688 -13.632812 C 21.148438 -12.09375 20.167969 -10.550781 19.117188 -9.03125 C 18.0625 -7.539062 16.863281 -6.09375 15.542969 -4.722656 C 14.222656 -3.328125 12.703125 -2.179688 10.992188 -1.273438 C 9.253906 -0.367188 7.515625 0 5.777344 -0.121094 C 4.921875 -0.195312 4.160156 -0.417969 3.453125 -0.785156 C 2.789062 -1.152344 2.226562 -1.664062 1.761719 -2.277344 C 0.90625 -3.5 0.367188 -4.894531 0.195312 -6.488281 C 0 -8.054688 0 -9.644531 0.21875 -11.285156 C 0.441406 -12.925781 0.785156 -14.589844 1.273438 -16.230469 C 1.785156 -17.867188 2.421875 -19.507812 3.207031 -21.125 C 3.964844 -22.765625 4.921875 -24.332031 6.070312 -25.824219 C 7.222656 -27.367188 8.617188 -28.6875 10.28125 -29.738281 C 11.136719 -30.253906 12.019531 -30.597656 12.925781 -30.816406 C 13.828125 -31.039062 14.710938 -31.0625 15.542969 -30.890625 C 16.398438 -30.671875 17.0625 -30.253906 17.527344 -29.59375 C 17.964844 -28.957031 18.234375 -28.246094 18.359375 -27.4375 C 18.578125 -25.847656 18.429688 -24.183594 17.941406 -22.496094 C 17.5 -20.804688 16.765625 -19.164062 15.714844 -17.574219 C 15.199219 -16.765625 14.539062 -16.058594 13.730469 -15.394531 C 13.316406 -15.078125 12.875 -14.808594 12.410156 -14.613281 C 11.921875 -14.417969 11.429688 -14.320312 10.964844 -14.320312 C 10.84375 -14.320312 10.746094 -14.367188 10.695312 -14.441406 C 10.625 -14.515625 10.625 -14.613281 10.648438 -14.734375 C 10.671875 -14.859375 10.746094 -14.980469 10.867188 -15.054688 C 10.964844 -15.128906 11.0625 -15.175781 11.1875 -15.175781 C 11.894531 -15.199219 12.605469 -15.46875 13.292969 -16.007812 C 13.953125 -16.546875 14.515625 -17.183594 15.003906 -17.917969 C 15.960938 -19.363281 16.667969 -20.902344 17.085938 -22.496094 C 17.550781 -24.109375 17.671875 -25.652344 17.476562 -27.097656 C 17.355469 -27.804688 17.109375 -28.441406 16.742188 -28.980469 C 16.351562 -29.519531 15.8125 -29.863281 15.128906 -30.035156 C 14.441406 -30.179688 13.707031 -30.15625 12.898438 -29.984375 C 12.117188 -29.8125 11.359375 -29.496094 10.597656 -29.03125 C 9.105469 -28.101562 7.832031 -26.902344 6.730469 -25.433594 C 5.65625 -24.011719 4.75 -22.519531 3.988281 -20.953125 C 3.230469 -19.386719 2.617188 -17.796875 2.152344 -16.203125 C 1.664062 -14.613281 1.320312 -13.023438 1.125 -11.429688 C 0.90625 -9.839844 0.90625 -8.296875 1.078125 -6.804688 C 1.25 -5.3125 1.738281 -3.988281 2.519531 -2.886719 C 2.9375 -2.351562 3.425781 -1.910156 4.039062 -1.566406 C 4.652344 -1.25 5.3125 -1.050781 6.070312 -0.980469 C 7.613281 -0.855469 9.179688 -1.199219 10.769531 -1.984375 C 12.3125 -2.816406 13.730469 -3.890625 15.027344 -5.1875 C 16.300781 -6.488281 17.453125 -7.882812 18.503906 -9.351562 C 19.558594 -10.820312 20.535156 -12.3125 21.46875 -13.855469 C 21.515625 -13.953125 21.589844 -14.027344 21.6875 -14.074219 C 21.785156 -14.097656 21.882812 -14.097656 21.957031 -14.074219 C 22.03125 -14.050781 22.078125 -13.976562 22.101562 -13.902344 C 22.128906 -13.828125 22.101562 -13.730469 22.054688 -13.632812 Z M 22.054688 -13.632812 "/></g></g></g><g fill="#000000" fill-opacity="1"><g transform="translate(204.543552, 317.079178)"><g><path d="M -0.148438 -10.035156 C -0.21875 -10.035156 -0.292969 -10.058594 -0.34375 -10.085938 C -0.441406 -10.132812 -0.488281 -10.257812 -0.515625 -10.476562 C -0.539062 -10.671875 -0.515625 -11.039062 -0.417969 -11.554688 C -0.316406 -12.066406 -0.148438 -12.828125 0.0976562 -13.828125 C 0.316406 -14.832031 0.660156 -16.128906 1.101562 -17.746094 C 1.519531 -19.363281 2.054688 -21.367188 2.71875 -23.742188 C 3.15625 -25.40625 3.574219 -26.972656 3.988281 -28.46875 C 4.015625 -28.589844 4.085938 -28.6875 4.210938 -28.761719 C 4.308594 -28.835938 4.40625 -28.882812 4.527344 -28.882812 C 4.652344 -28.882812 4.75 -28.835938 4.820312 -28.761719 C 4.871094 -28.6875 4.871094 -28.589844 4.847656 -28.46875 C 4.453125 -26.972656 4.039062 -25.40625 3.574219 -23.742188 C 2.914062 -21.320312 2.25 -18.871094 1.589844 -16.398438 C 0.929688 -13.925781 0.539062 -12.164062 0.367188 -11.160156 C 0.464844 -11.234375 0.5625 -11.285156 0.636719 -11.332031 C 1.347656 -11.824219 2.128906 -12.335938 2.984375 -12.875 C 3.84375 -13.390625 4.675781 -13.855469 5.507812 -14.246094 C 6.316406 -14.636719 7.023438 -14.832031 7.589844 -14.832031 C 7.929688 -14.832031 8.175781 -14.734375 8.347656 -14.5625 C 8.492188 -14.367188 8.589844 -14.125 8.664062 -13.855469 C 8.714844 -13.5625 8.738281 -13.265625 8.761719 -12.972656 C 8.789062 -12.359375 8.886719 -11.847656 9.058594 -11.480469 C 9.226562 -11.113281 9.621094 -10.917969 10.230469 -10.917969 C 11.039062 -10.917969 11.847656 -11.0625 12.703125 -11.382812 C 13.535156 -11.675781 14.34375 -12.042969 15.101562 -12.507812 C 15.863281 -12.949219 16.570312 -13.390625 17.183594 -13.855469 C 17.304688 -13.925781 17.402344 -13.976562 17.527344 -13.976562 C 17.648438 -13.976562 17.722656 -13.925781 17.796875 -13.828125 C 17.84375 -13.730469 17.84375 -13.632812 17.820312 -13.511719 C 17.796875 -13.390625 17.722656 -13.292969 17.597656 -13.21875 C 16.9375 -12.726562 16.179688 -12.238281 15.347656 -11.773438 C 14.515625 -11.285156 13.632812 -10.867188 12.726562 -10.550781 C 11.796875 -10.230469 10.890625 -10.058594 9.988281 -10.058594 C 9.324219 -10.058594 8.859375 -10.207031 8.589844 -10.5 C 8.296875 -10.769531 8.101562 -11.113281 8.027344 -11.527344 C 7.929688 -11.921875 7.882812 -12.3125 7.855469 -12.703125 C 7.832031 -13.121094 7.808594 -13.4375 7.734375 -13.660156 C 7.660156 -13.855469 7.539062 -13.953125 7.34375 -13.953125 C 6.878906 -13.953125 6.265625 -13.757812 5.507812 -13.390625 C 4.75 -13.023438 3.964844 -12.582031 3.15625 -12.066406 C 2.351562 -11.554688 1.640625 -11.089844 1.003906 -10.671875 C 0.683594 -10.476562 0.417969 -10.304688 0.195312 -10.132812 C 0.0742188 -10.058594 -0.0507812 -10.035156 -0.148438 -10.035156 Z M -0.148438 -10.035156 "/></g></g></g><g fill="#000000" fill-opacity="1"><g transform="translate(221.60137, 317.079178)"><g><path d="M 2.546875 -10.035156 C 1.492188 -10.035156 0.785156 -10.304688 0.417969 -10.84375 C -0.0976562 -11.527344 -0.171875 -12.875 0.21875 -14.90625 C 0.613281 -16.914062 1.371094 -19.949219 2.519531 -24.035156 C 2.886719 -25.382812 3.28125 -26.851562 3.71875 -28.46875 C 3.746094 -28.589844 3.820312 -28.6875 3.941406 -28.761719 C 4.039062 -28.835938 4.136719 -28.882812 4.257812 -28.882812 C 4.382812 -28.882812 4.453125 -28.835938 4.527344 -28.761719 C 4.601562 -28.6875 4.601562 -28.589844 4.578125 -28.46875 C 4.160156 -26.851562 3.746094 -25.359375 3.378906 -24.011719 C 2.324219 -20.265625 1.589844 -17.402344 1.175781 -15.394531 C 0.757812 -13.363281 0.757812 -12.066406 1.199219 -11.457031 C 1.417969 -11.089844 1.957031 -10.917969 2.765625 -10.917969 C 3.523438 -10.917969 4.285156 -11.0625 5.042969 -11.382812 C 5.800781 -11.699219 6.511719 -12.066406 7.171875 -12.484375 C 7.832031 -12.898438 8.394531 -13.265625 8.910156 -13.609375 C 9.058594 -13.707031 9.179688 -13.804688 9.300781 -13.902344 C 9.425781 -13.976562 9.546875 -14 9.667969 -14 C 9.765625 -13.976562 9.839844 -13.925781 9.914062 -13.828125 C 9.960938 -13.757812 9.960938 -13.660156 9.9375 -13.535156 C 9.890625 -13.414062 9.816406 -13.316406 9.691406 -13.242188 C 9.570312 -13.144531 9.425781 -13.046875 9.277344 -12.949219 C 8.761719 -12.582031 8.125 -12.164062 7.417969 -11.726562 C 6.683594 -11.257812 5.898438 -10.867188 5.066406 -10.550781 C 4.234375 -10.207031 3.402344 -10.035156 2.546875 -10.035156 Z M 2.546875 -10.035156 "/></g></g></g><g fill="#000000" fill-opacity="1"><g transform="translate(230.729875, 317.079178)"><g><path d="M 5.554688 -7.660156 C 3.035156 -5.605469 1.078125 -3.523438 -0.269531 -1.445312 C -1.617188 0.660156 -2.375 2.398438 -2.546875 3.769531 C -2.570312 4.039062 -2.570312 4.308594 -2.546875 4.625 C -2.519531 4.945312 -2.449219 5.238281 -2.277344 5.457031 C -2.128906 5.703125 -1.859375 5.824219 -1.46875 5.824219 C -0.882812 5.824219 -0.34375 5.628906 0.171875 5.214844 C 1.273438 4.257812 2.277344 2.644531 3.132812 0.316406 C 3.988281 -2.007812 4.796875 -4.652344 5.554688 -7.660156 Z M 7.808594 -14.761719 C 8.101562 -14.710938 8.222656 -14.589844 8.175781 -14.394531 C 7.855469 -13.121094 7.515625 -11.847656 7.195312 -10.597656 L 6.953125 -9.667969 C 9.59375 -11.480469 12.777344 -12.898438 16.472656 -13.925781 C 16.597656 -13.953125 16.71875 -13.953125 16.816406 -13.902344 C 16.890625 -13.828125 16.9375 -13.757812 16.9375 -13.632812 C 16.9375 -13.511719 16.890625 -13.414062 16.816406 -13.316406 C 16.742188 -13.195312 16.621094 -13.121094 16.496094 -13.09375 C 12.605469 -11.992188 9.324219 -10.453125 6.632812 -8.46875 C 5.777344 -5.117188 4.894531 -2.152344 3.964844 0.367188 C 3.035156 2.914062 1.933594 4.722656 0.636719 5.824219 C -0.121094 6.414062 -0.90625 6.707031 -1.714844 6.707031 C -3.011719 6.707031 -3.597656 5.777344 -3.425781 3.890625 C -3.253906 2.300781 -2.375 0.316406 -0.832031 -2.054688 C 0.710938 -4.40625 2.9375 -6.683594 5.898438 -8.910156 C 6.019531 -9.472656 6.167969 -10.011719 6.316406 -10.574219 C 6.535156 -11.40625 6.753906 -12.238281 6.976562 -13.070312 C 6.386719 -12.484375 5.800781 -11.992188 5.261719 -11.601562 C 4.40625 -11.015625 3.621094 -10.625 2.9375 -10.402344 C 2.25 -10.183594 1.714844 -10.085938 1.347656 -10.085938 C 1.199219 -10.085938 1.078125 -10.085938 1.003906 -10.109375 C -0.34375 -10.328125 -0.5625 -11.773438 0.34375 -14.417969 C 0.390625 -14.539062 0.464844 -14.660156 0.585938 -14.734375 C 0.683594 -14.808594 0.808594 -14.832031 0.929688 -14.808594 C 1.050781 -14.808594 1.125 -14.761719 1.175781 -14.6875 C 1.222656 -14.589844 1.222656 -14.464844 1.199219 -14.34375 C 0.929688 -13.5625 0.785156 -12.949219 0.734375 -12.507812 C 0.660156 -12.042969 0.683594 -11.726562 0.757812 -11.503906 C 0.832031 -11.285156 0.953125 -11.136719 1.078125 -11.0625 C 1.199219 -10.992188 1.296875 -10.964844 1.371094 -10.964844 C 1.6875 -10.84375 2.398438 -11.015625 3.5 -11.457031 C 4.601562 -11.894531 5.875 -12.949219 7.320312 -14.589844 C 7.441406 -14.734375 7.613281 -14.785156 7.808594 -14.761719 Z M 7.808594 -14.761719 "/></g></g></g><g fill="#000000" fill-opacity="1"><g transform="translate(246.686383, 317.079178)"><g><path d="M 3.183594 -9.914062 C 3.058594 -9.839844 2.9375 -9.765625 2.816406 -9.691406 C 1.761719 -9.058594 1.003906 -8.519531 0.488281 -8.101562 C -0.0234375 -7.660156 -0.34375 -7.320312 -0.488281 -7.097656 C -0.660156 -6.855469 -0.734375 -6.707031 -0.710938 -6.632812 C -0.734375 -6.585938 -0.734375 -6.535156 -0.710938 -6.488281 C -0.683594 -6.4375 -0.636719 -6.386719 -0.539062 -6.339844 C -0.246094 -6.191406 0.246094 -6.191406 0.929688 -6.363281 C 1.617188 -6.535156 2.398438 -6.878906 3.304688 -7.390625 C 3.820312 -7.710938 4.113281 -8.027344 4.1875 -8.324219 C 4.234375 -8.835938 3.890625 -9.351562 3.183594 -9.914062 Z M -0.21875 -5.359375 C -0.585938 -5.359375 -0.882812 -5.410156 -1.101562 -5.53125 C -1.519531 -5.753906 -1.664062 -6.09375 -1.589844 -6.558594 C -1.394531 -7.589844 -0.0234375 -8.886719 2.519531 -10.425781 C 2.25 -10.625 1.957031 -10.84375 1.589844 -11.089844 C 1.222656 -11.308594 0.882812 -11.578125 0.515625 -11.847656 C 0.0507812 -12.238281 -0.148438 -12.628906 -0.0976562 -13.023438 C -0.0742188 -13.390625 0.0507812 -13.707031 0.246094 -13.925781 C 0.855469 -14.734375 1.8125 -15.421875 3.085938 -15.933594 C 4.355469 -16.449219 5.410156 -16.621094 6.265625 -16.496094 C 6.976562 -16.328125 7.246094 -15.910156 7.074219 -15.199219 C 7.050781 -15.078125 6.976562 -14.980469 6.878906 -14.90625 C 6.753906 -14.832031 6.632812 -14.785156 6.511719 -14.785156 C 6.386719 -14.785156 6.316406 -14.832031 6.265625 -14.90625 C 6.191406 -14.980469 6.167969 -15.078125 6.191406 -15.199219 C 6.21875 -15.296875 6.21875 -15.394531 6.191406 -15.46875 C 6.167969 -15.542969 6.046875 -15.617188 5.875 -15.664062 C 5.214844 -15.738281 4.332031 -15.566406 3.28125 -15.152344 C 2.203125 -14.734375 1.417969 -14.222656 0.953125 -13.609375 C 0.855469 -13.488281 0.808594 -13.339844 0.808594 -13.167969 C 0.785156 -12.996094 0.90625 -12.800781 1.175781 -12.582031 C 1.519531 -12.3125 1.910156 -12.042969 2.324219 -11.75 C 2.742188 -11.480469 3.109375 -11.210938 3.476562 -10.941406 C 5.1875 -11.796875 7.121094 -12.484375 9.253906 -13.023438 C 11.382812 -13.5625 13.265625 -13.828125 14.957031 -13.828125 C 15.078125 -13.828125 15.175781 -13.78125 15.25 -13.707031 C 15.296875 -13.632812 15.296875 -13.511719 15.273438 -13.390625 C 15.25 -13.265625 15.175781 -13.167969 15.078125 -13.09375 C 14.957031 -13.023438 14.832031 -12.972656 14.710938 -12.972656 C 13.167969 -12.972656 11.429688 -12.726562 9.496094 -12.261719 C 7.539062 -11.773438 5.753906 -11.160156 4.136719 -10.402344 C 4.871094 -9.789062 5.1875 -9.105469 5.066406 -8.371094 C 4.945312 -7.757812 4.453125 -7.222656 3.621094 -6.707031 C 2.152344 -5.824219 0.882812 -5.386719 -0.21875 -5.359375 Z M -0.21875 -5.359375 "/></g></g></g><g fill="#000000" fill-opacity="1"><g transform="translate(261.174511, 317.079178)"><g><path d="M -0.121094 -10.035156 C -0.195312 -10.035156 -0.269531 -10.058594 -0.34375 -10.085938 C -0.464844 -10.15625 -0.515625 -10.28125 -0.539062 -10.5 C -0.5625 -10.695312 -0.515625 -11.0625 -0.390625 -11.601562 C -0.269531 -12.140625 -0.0742188 -12.925781 0.195312 -13.953125 L 0.316406 -14.394531 C 0.367188 -14.515625 0.441406 -14.613281 0.5625 -14.6875 C 0.660156 -14.761719 0.757812 -14.808594 0.882812 -14.808594 C 1.003906 -14.808594 1.078125 -14.761719 1.152344 -14.6875 C 1.222656 -14.613281 1.222656 -14.515625 1.199219 -14.394531 L 1.078125 -13.953125 C 0.980469 -13.632812 0.855469 -13.195312 0.734375 -12.679688 C 0.613281 -12.164062 0.488281 -11.699219 0.417969 -11.285156 C 1.617188 -12.3125 2.71875 -13.167969 3.671875 -13.828125 C 4.625 -14.492188 5.433594 -14.808594 6.121094 -14.808594 C 6.585938 -14.808594 6.878906 -14.660156 7.023438 -14.394531 C 7.148438 -14.097656 7.195312 -13.757812 7.171875 -13.339844 C 7.148438 -12.925781 7.074219 -12.507812 7 -12.117188 C 6.976562 -11.894531 6.925781 -11.675781 6.902344 -11.457031 C 6.878906 -11.210938 6.878906 -11.039062 6.902344 -10.941406 C 7.050781 -10.992188 7.292969 -11.160156 7.613281 -11.429688 C 7.929688 -11.699219 8.222656 -11.945312 8.519531 -12.214844 C 9.203125 -12.875 9.914062 -13.460938 10.648438 -14 C 11.382812 -14.539062 12.066406 -14.808594 12.726562 -14.808594 C 13.046875 -14.808594 13.292969 -14.734375 13.414062 -14.5625 C 13.535156 -14.394531 13.632812 -14.195312 13.660156 -13.953125 C 13.683594 -13.683594 13.707031 -13.414062 13.707031 -13.144531 C 13.683594 -12.777344 13.707031 -12.410156 13.78125 -12.09375 C 13.855469 -11.75 14 -11.480469 14.269531 -11.257812 C 14.539062 -11.039062 14.980469 -10.917969 15.59375 -10.917969 C 16.523438 -10.917969 17.550781 -11.1875 18.652344 -11.726562 C 19.753906 -12.238281 20.78125 -12.777344 21.6875 -13.316406 C 22.03125 -13.511719 22.347656 -13.683594 22.667969 -13.855469 C 22.789062 -13.925781 22.886719 -13.953125 23.007812 -13.925781 C 23.105469 -13.902344 23.179688 -13.828125 23.230469 -13.730469 C 23.253906 -13.609375 23.253906 -13.511719 23.203125 -13.390625 C 23.132812 -13.265625 23.058594 -13.195312 22.933594 -13.121094 C 22.640625 -12.972656 22.347656 -12.800781 22.03125 -12.628906 C 22.003906 -12.605469 22.003906 -12.605469 21.980469 -12.605469 C 21.34375 -12.238281 20.660156 -11.847656 19.898438 -11.480469 C 19.140625 -11.089844 18.382812 -10.746094 17.597656 -10.476562 C 16.816406 -10.207031 16.082031 -10.058594 15.371094 -10.058594 C 14.515625 -10.058594 13.925781 -10.230469 13.5625 -10.550781 C 13.195312 -10.867188 12.972656 -11.234375 12.898438 -11.675781 C 12.828125 -12.117188 12.777344 -12.53125 12.800781 -12.925781 C 12.800781 -13.316406 12.777344 -13.585938 12.753906 -13.730469 C 12.726562 -13.878906 12.628906 -13.953125 12.507812 -13.953125 C 12.042969 -13.953125 11.503906 -13.707031 10.867188 -13.21875 C 10.207031 -12.726562 9.59375 -12.214844 9.03125 -11.652344 C 8.519531 -11.1875 8.054688 -10.792969 7.660156 -10.5 C 7.269531 -10.207031 6.925781 -10.058594 6.632812 -10.058594 C 6.339844 -10.058594 6.144531 -10.15625 6.070312 -10.355469 C 5.996094 -10.550781 5.972656 -10.792969 5.996094 -11.113281 C 6.019531 -11.40625 6.046875 -11.726562 6.121094 -12.042969 C 6.242188 -12.703125 6.316406 -13.167969 6.289062 -13.488281 C 6.265625 -13.804688 6.144531 -13.953125 5.898438 -13.953125 C 5.359375 -13.953125 4.625 -13.609375 3.671875 -12.898438 C 2.71875 -12.191406 1.6875 -11.382812 0.585938 -10.453125 L 0.269531 -10.183594 C 0.246094 -10.15625 0.21875 -10.15625 0.195312 -10.132812 C 0.0742188 -10.058594 -0.0234375 -10.035156 -0.121094 -10.035156 Z M -0.121094 -10.035156 "/></g></g></g><g fill="#000000" fill-opacity="1"><g transform="translate(283.640909, 317.079178)"><g><path d="M 1.933594 -13.953125 C 1.785156 -13.953125 1.640625 -13.902344 1.492188 -13.828125 C 1.152344 -13.609375 0.882812 -13.292969 0.660156 -12.828125 C 0.441406 -12.359375 0.316406 -11.921875 0.316406 -11.503906 C 0.316406 -11.382812 0.34375 -11.234375 0.417969 -11.089844 C 0.464844 -10.941406 0.5625 -10.867188 0.734375 -10.867188 C 1.003906 -10.867188 1.371094 -11.136719 1.785156 -11.675781 C 2.203125 -12.191406 2.617188 -12.777344 3.011719 -13.390625 C 2.863281 -13.511719 2.691406 -13.660156 2.519531 -13.78125 C 2.351562 -13.902344 2.152344 -13.953125 1.933594 -13.953125 Z M 4.578125 -14.589844 C 4.601562 -14.492188 4.554688 -14.292969 4.453125 -13.976562 C 4.1875 -13.167969 4.085938 -12.484375 4.160156 -11.96875 C 4.234375 -11.429688 4.652344 -11.089844 5.433594 -10.964844 C 7.121094 -10.695312 9.425781 -11.554688 12.386719 -13.5625 C 12.507812 -13.632812 12.628906 -13.660156 12.753906 -13.660156 C 12.851562 -13.632812 12.925781 -13.585938 12.996094 -13.488281 C 13.046875 -13.390625 13.046875 -13.292969 13.023438 -13.167969 C 12.972656 -13.046875 12.898438 -12.949219 12.777344 -12.875 C 9.988281 -10.992188 7.660156 -10.035156 5.824219 -10.035156 C 5.554688 -10.035156 5.3125 -10.058594 5.066406 -10.109375 C 4.257812 -10.257812 3.746094 -10.550781 3.523438 -10.992188 C 3.304688 -11.40625 3.207031 -11.847656 3.253906 -12.335938 C 3.132812 -12.191406 3.035156 -12.042969 2.9375 -11.894531 C 2.546875 -11.332031 2.152344 -10.890625 1.738281 -10.523438 C 1.320312 -10.15625 0.929688 -9.988281 0.515625 -9.988281 C -0.148438 -9.988281 -0.515625 -10.425781 -0.5625 -11.285156 C -0.585938 -11.847656 -0.417969 -12.460938 -0.0976562 -13.121094 C 0.21875 -13.757812 0.683594 -14.246094 1.25 -14.5625 C 1.519531 -14.734375 1.859375 -14.808594 2.277344 -14.808594 C 2.667969 -14.808594 3.085938 -14.613281 3.550781 -14.222656 C 3.621094 -14.34375 3.695312 -14.441406 3.769531 -14.539062 C 3.84375 -14.660156 3.941406 -14.734375 4.0625 -14.785156 C 4.1875 -14.832031 4.285156 -14.832031 4.40625 -14.785156 C 4.503906 -14.761719 4.554688 -14.6875 4.578125 -14.589844 Z M 4.578125 -14.589844 "/></g></g></g><g fill="#000000" fill-opacity="1"><g transform="translate(295.950929, 317.079178)"><g><path d="M -0.34375 -10.035156 C -0.417969 -10.035156 -0.488281 -10.058594 -0.539062 -10.085938 C -0.613281 -10.132812 -0.660156 -10.207031 -0.683594 -10.304688 C -0.710938 -10.402344 -0.710938 -10.574219 -0.660156 -10.792969 C -0.636719 -11.015625 -0.539062 -11.359375 -0.417969 -11.796875 C -0.292969 -12.214844 -0.148438 -12.777344 0.0742188 -13.488281 L 0.367188 -14.417969 C 0.390625 -14.539062 0.464844 -14.636719 0.585938 -14.710938 C 0.683594 -14.785156 0.785156 -14.832031 0.90625 -14.832031 C 1.027344 -14.808594 1.125 -14.761719 1.199219 -14.6875 C 1.25 -14.613281 1.25 -14.492188 1.222656 -14.367188 L 0.929688 -13.4375 C 0.660156 -12.582031 0.464844 -11.847656 0.292969 -11.257812 C 0.34375 -11.285156 0.390625 -11.308594 0.441406 -11.332031 C 1.152344 -11.824219 1.933594 -12.335938 2.789062 -12.875 C 3.648438 -13.390625 4.480469 -13.855469 5.289062 -14.246094 C 6.09375 -14.636719 6.804688 -14.832031 7.390625 -14.832031 C 7.710938 -14.832031 7.957031 -14.734375 8.125 -14.5625 C 8.273438 -14.394531 8.371094 -14.148438 8.445312 -13.878906 C 8.492188 -13.609375 8.519531 -13.316406 8.542969 -13.046875 C 8.566406 -12.679688 8.640625 -12.335938 8.714844 -12.019531 C 8.789062 -11.699219 8.933594 -11.429688 9.15625 -11.234375 C 9.375 -11.015625 9.765625 -10.917969 10.28125 -10.917969 C 11.382812 -10.917969 12.410156 -11.160156 13.363281 -11.652344 C 14.320312 -12.117188 15.25 -12.679688 16.179688 -13.316406 L 16.644531 -13.585938 C 16.765625 -13.660156 16.863281 -13.707031 16.988281 -13.683594 C 17.109375 -13.660156 17.183594 -13.609375 17.230469 -13.511719 C 17.28125 -13.414062 17.28125 -13.316406 17.230469 -13.195312 C 17.183594 -13.070312 17.109375 -12.972656 16.988281 -12.898438 L 16.546875 -12.628906 C 15.886719 -12.191406 15.226562 -11.773438 14.539062 -11.40625 C 13.855469 -11.015625 13.144531 -10.695312 12.410156 -10.453125 C 11.652344 -10.183594 10.867188 -10.058594 10.035156 -10.058594 C 9.324219 -10.058594 8.789062 -10.207031 8.46875 -10.5 C 8.152344 -10.792969 7.929688 -11.136719 7.832031 -11.554688 C 7.734375 -11.96875 7.6875 -12.359375 7.660156 -12.753906 C 7.636719 -13.167969 7.589844 -13.488281 7.515625 -13.683594 C 7.441406 -13.855469 7.320312 -13.953125 7.148438 -13.953125 C 6.683594 -13.953125 6.070312 -13.757812 5.3125 -13.390625 C 4.554688 -13.023438 3.769531 -12.582031 2.960938 -12.066406 C 2.152344 -11.554688 1.417969 -11.089844 0.808594 -10.671875 C 0.488281 -10.476562 0.21875 -10.304688 -0.0234375 -10.132812 C -0.148438 -10.058594 -0.246094 -10.035156 -0.34375 -10.035156 Z M -0.34375 -10.035156 "/></g></g></g></svg>