<svg xmlns="http://www.w3.org/2000/svg" xmlns:xlink="http://www.w3.org/1999/xlink" width="500" zoomAndPan="magnify" viewBox="0 0 375 374.999991" height="500" preserveAspectRatio="xMidYMid meet" version="1.0"><defs><g/></defs><g fill="#000000" fill-opacity="1"><g transform="translate(52.139251, 264.573105)"><g><path d="M 10.886719 -65.832031 C 34.433594 22.28125 161.539062 21.773438 177.996094 -60.515625 L 175.71875 -61.019531 C 160.78125 14.433594 51.652344 14.179688 28.863281 -70.640625 C 26.332031 -79.757812 25.320312 -89.378906 25.320312 -99 L 30.636719 -99 C 71.148438 -99 115.457031 -89.378906 115.457031 -89.378906 L 117.734375 -89.378906 L 117.734375 -110.898438 L 115.457031 -110.898438 C 115.457031 -110.898438 71.148438 -101.277344 30.636719 -101.277344 L 25.574219 -101.277344 C 26.585938 -133.179688 42.285156 -165.082031 74.945312 -173.945312 C 111.660156 -183.566406 142.296875 -156.476562 157.996094 -125.078125 L 160.273438 -125.078125 L 166.351562 -147.359375 C 144.574219 -172.933594 109.128906 -185.339844 74.441406 -175.972656 C 26.585938 -163.058594 -2.027344 -113.9375 10.886719 -65.832031 Z M 10.886719 -65.832031 "/></g></g></g><g fill="#000000" fill-opacity="1"><g transform="translate(116.442075, 266.641698)"><g><path d="M 10.886719 -66.085938 C 34.433594 22.027344 161.539062 21.523438 177.742188 -60.765625 L 175.71875 -61.273438 C 160.78125 14.179688 51.652344 13.925781 28.863281 -70.894531 C 18.230469 -110.394531 31.394531 -162.550781 74.945312 -174.199219 C 111.40625 -183.820312 142.296875 -156.726562 157.996094 -125.332031 L 160.273438 -125.332031 L 166.097656 -147.613281 C 144.320312 -173.1875 109.128906 -185.59375 74.441406 -176.222656 C 26.332031 -163.3125 -2.027344 -114.191406 10.886719 -66.085938 Z M 10.886719 -66.085938 "/></g></g></g></svg>