<svg xmlns="http://www.w3.org/2000/svg" xmlns:xlink="http://www.w3.org/1999/xlink" width="500" zoomAndPan="magnify" viewBox="0 0 375 374.999991" height="500" preserveAspectRatio="xMidYMid meet" version="1.0"><defs><g/><clipPath id="77a408e00a"><path d="M 75.992188 76.90625 L 291.992188 76.90625 L 291.992188 292.90625 L 75.992188 292.90625 Z M 75.992188 76.90625 " clip-rule="nonzero"/></clipPath></defs><g clip-path="url(#77a408e00a)"><path fill="#000000" d="M 122.410156 76.90625 L 291.996094 76.90625 L 291.996094 292.910156 L 75.992188 292.910156 L 75.992188 260.28125 C 76.554688 261 77.125 261.714844 77.695312 262.425781 L 77.695312 291.203125 L 290.285156 291.203125 L 290.285156 78.609375 L 121.421875 78.609375 C 121.746094 78.0625 122.0625 77.515625 122.378906 76.960938 Z M 122.410156 76.90625 " fill-opacity="1" fill-rule="evenodd"/></g><g fill="#5d5d6b" fill-opacity="1"><g transform="translate(102.673919, 234.907502)"><g><path d="M 87.625 -132.375 C 93.726562 -132.375 100.109375 -131.851562 106.765625 -130.8125 C 113.429688 -129.769531 118.632812 -128.414062 122.375 -126.75 C 123.625 -126.332031 124.421875 -125.8125 124.765625 -125.1875 C 125.117188 -124.5625 125.429688 -123.488281 125.703125 -121.96875 L 128.203125 -93.03125 C 128.203125 -92.613281 127.851562 -92.332031 127.15625 -92.1875 C 126.46875 -92.050781 126.054688 -92.265625 125.921875 -92.828125 C 121.203125 -103.785156 114.882812 -112.25 106.96875 -118.21875 C 99.0625 -124.1875 89.90625 -127.171875 79.5 -127.171875 C 65.769531 -127.171875 55.15625 -122.101562 47.65625 -111.96875 C 40.164062 -101.84375 36.421875 -88.242188 36.421875 -71.171875 C 36.421875 -58.410156 38.46875 -46.753906 42.5625 -36.203125 C 46.65625 -25.660156 52.410156 -17.300781 59.828125 -11.125 C 67.253906 -4.957031 75.6875 -1.875 85.125 -1.875 C 94 -1.875 101.941406 -4.820312 108.953125 -10.71875 C 115.960938 -16.613281 122.238281 -25.597656 127.78125 -37.671875 C 127.925781 -38.222656 128.378906 -38.429688 129.140625 -38.296875 C 129.898438 -38.160156 130.28125 -37.882812 130.28125 -37.46875 L 127.171875 -9.15625 C 126.890625 -7.488281 126.570312 -6.410156 126.21875 -5.921875 C 125.875 -5.441406 125.078125 -4.925781 123.828125 -4.375 C 111.484375 0.207031 98.789062 2.5 85.75 2.5 C 68.820312 2.5 54.664062 -0.863281 43.28125 -7.59375 C 31.90625 -14.320312 23.546875 -22.851562 18.203125 -33.1875 C 12.867188 -43.53125 10.203125 -54.320312 10.203125 -65.5625 C 10.203125 -78.738281 13.773438 -90.390625 20.921875 -100.515625 C 28.066406 -110.648438 37.566406 -118.492188 49.421875 -124.046875 C 61.285156 -129.597656 74.019531 -132.375 87.625 -132.375 Z M 87.625 -132.375 "/></g></g></g><g fill="#000000" fill-opacity="1"><g transform="translate(68.396473, 235.560527)"><g><path d="M 103.234375 -33.09375 C 103.234375 -33.375 103.507812 -33.515625 104.0625 -33.515625 C 104.476562 -33.515625 104.859375 -33.410156 105.203125 -33.203125 C 105.554688 -32.992188 105.734375 -32.816406 105.734375 -32.671875 C 104.335938 -21.847656 103.640625 -12 103.640625 -3.125 C 103.640625 -2.007812 103.429688 -1.207031 103.015625 -0.71875 C 102.597656 -0.238281 101.769531 0 100.53125 0 L 8.53125 0 C 8.113281 0 7.90625 -0.414062 7.90625 -1.25 C 7.90625 -2.082031 8.113281 -2.5 8.53125 -2.5 C 12.96875 -2.5 16.191406 -2.84375 18.203125 -3.53125 C 20.222656 -4.226562 21.578125 -5.582031 22.265625 -7.59375 C 22.960938 -9.601562 23.3125 -12.691406 23.3125 -16.859375 L 23.3125 -113.21875 C 23.3125 -117.382812 22.960938 -120.4375 22.265625 -122.375 C 21.578125 -124.320312 20.191406 -125.675781 18.109375 -126.4375 C 16.023438 -127.195312 12.832031 -127.578125 8.53125 -127.578125 C 8.113281 -127.578125 7.90625 -127.992188 7.90625 -128.828125 C 7.90625 -129.660156 8.113281 -130.078125 8.53125 -130.078125 L 96.78125 -130.078125 C 98.164062 -130.078125 98.859375 -129.453125 98.859375 -128.203125 L 99.28125 -100.53125 C 99.28125 -100.25 98.894531 -100.035156 98.125 -99.890625 C 97.363281 -99.753906 96.914062 -99.894531 96.78125 -100.3125 C 94.5625 -108.363281 90.8125 -114.332031 85.53125 -118.21875 C 80.257812 -122.101562 73.328125 -124.046875 64.734375 -124.046875 L 58.484375 -124.046875 C 54.316406 -124.046875 51.257812 -123.140625 49.3125 -121.328125 C 47.375 -119.523438 46.40625 -116.753906 46.40625 -113.015625 L 46.40625 -70.546875 L 63.6875 -70.546875 C 71.726562 -70.546875 77.898438 -71.929688 82.203125 -74.703125 C 86.503906 -77.484375 88.65625 -81.375 88.65625 -86.375 C 88.65625 -86.789062 89.035156 -87 89.796875 -87 C 90.566406 -87 90.953125 -86.789062 90.953125 -86.375 L 90.75 -67.640625 L 90.953125 -57.65625 C 91.222656 -52.9375 91.359375 -49.1875 91.359375 -46.40625 C 91.359375 -46.132812 90.941406 -46 90.109375 -46 C 89.285156 -46 88.875 -46.132812 88.875 -46.40625 C 88.875 -52.09375 86.6875 -56.566406 82.3125 -59.828125 C 77.9375 -63.097656 71.660156 -64.734375 63.484375 -64.734375 L 46.40625 -64.734375 L 46.40625 -17.6875 C 46.40625 -13.664062 47.164062 -10.679688 48.6875 -8.734375 C 50.21875 -6.796875 52.648438 -5.828125 55.984375 -5.828125 L 62.859375 -5.828125 C 73.679688 -5.828125 82.351562 -8.046875 88.875 -12.484375 C 95.394531 -16.921875 100.179688 -23.789062 103.234375 -33.09375 Z M 103.234375 -33.09375 "/></g></g></g></svg>